name D:\school\WTK\thesis\model\3dpredictsim\Results\test_WL_v2\Fal_s1_bCst_PF_linear_ls135_k150_Mmtp_ig24_v3.mot
datacolumns 128
datarows 4
range 1.17478699 1.21003060
endheader
time	pelvis_tilt	pelvis_list	pelvis_rotation	pelvis_tx	pelvis_ty	pelvis_tz	hip_flexion_l	hip_adduction_l	hip_rotation_l	hip_flexion_r	hip_adduction_r	hip_rotation_r	knee_angle_l	knee_angle_r	ankle_angle_l	ankle_angle_r	subtalar_angle_l	subtalar_angle_r	tmt_angle_l	tmt_angle_r	mtp_angle_l	mtp_angle_r	lumbar_extension	lumbar_bending	lumbar_rotation	arm_flex_l	arm_add_l	arm_rot_l	arm_flex_r	arm_add_r	arm_rot_r	elbow_flex_l	elbow_flex_r	pro_sup_l	pro_sup_r	glut_med1_l/activation	glut_med2_l/activation	glut_med3_l/activation	glut_min1_l/activation	glut_min2_l/activation	glut_min3_l/activation	semimem_l/activation	semiten_l/activation	bifemlh_l/activation	bifemsh_l/activation	sar_l/activation	add_long_l/activation	add_brev_l/activation	add_mag1_l/activation	add_mag2_l/activation	add_mag3_l/activation	tfl_l/activation	pect_l/activation	grac_l/activation	glut_max1_l/activation	glut_max2_l/activation	glut_max3_l/activation	iliacus_l/activation	psoas_l/activation	quad_fem_l/activation	gem_l/activation	peri_l/activation	rect_fem_l/activation	vas_med_l/activation	vas_int_l/activation	vas_lat_l/activation	med_gas_l/activation	lat_gas_l/activation	soleus_l/activation	tib_post_l/activation	flex_dig_l/activation	flex_hal_l/activation	tib_ant_l/activation	per_brev_l/activation	per_long_l/activation	per_tert_l/activation	ext_dig_l/activation	ext_hal_l/activation	ercspn_l/activation	intobl_l/activation	extobl_l/activation	glut_med1_r/activation	glut_med2_r/activation	glut_med3_r/activation	glut_min1_r/activation	glut_min2_r/activation	glut_min3_r/activation	semimem_r/activation	semiten_r/activation	bifemlh_r/activation	bifemsh_r/activation	sar_r/activation	add_long_r/activation	add_brev_r/activation	add_mag1_r/activation	add_mag2_r/activation	add_mag3_r/activation	tfl_r/activation	pect_r/activation	grac_r/activation	glut_max1_r/activation	glut_max2_r/activation	glut_max3_r/activation	iliacus_r/activation	psoas_r/activation	quad_fem_r/activation	gem_r/activation	peri_r/activation	rect_fem_r/activation	vas_med_r/activation	vas_int_r/activation	vas_lat_r/activation	med_gas_r/activation	lat_gas_r/activation	soleus_r/activation	tib_post_r/activation	flex_dig_r/activation	flex_hal_r/activation	tib_ant_r/activation	per_brev_r/activation	per_long_r/activation	per_tert_r/activation	ext_dig_r/activation	ext_hal_r/activation	ercspn_r/activation	intobl_r/activation	extobl_r/activation	
          1.17478699	         -2.92972502	         -2.88075554	          6.56728846	          1.46848373	          0.91705531	         -0.00264530	        -16.60388419	         -1.88697176	          6.94092912	         28.78293182	          3.74344692	         -3.25677054	        -10.23748704	         -9.21913810	         -1.96349611	          8.26570635	          4.27543475	         -7.12604191	          3.02319342	         -3.45035091	         15.30110157	         -1.24509269	         -1.87551737	          0.76772391	         -2.77416236	          7.56137767	        -13.45222454	         18.91663045	         -7.69386679	        -13.56715754	          9.17751532	         38.77331802	         13.60162129	         86.51662706	         86.51662706	          0.20444281	          0.07151299	          0.05657214	          0.21903829	          0.13850791	          0.08549540	          0.05000847	          0.05000182	          0.05000106	          0.05000076	          0.09368340	          0.05000297	          0.05000805	          0.05001425	          0.05003256	          0.05977709	          0.24042547	          0.05000499	          0.05000257	          0.05001342	          0.05000857	          0.05000921	          0.42421387	          0.59806136	          0.05000059	          0.05000198	          0.05000103	          0.32195637	          0.14598539	          0.12981766	          0.11602998	          0.22239343	          0.29954003	          0.26326708	          0.23853758	          0.37445711	          0.46696521	          0.05000002	          0.05056759	          0.12972472	          0.05000016	          0.05000005	          0.05000018	          0.05000006	          0.06064063	          0.06300526	          0.05000007	          0.05000015	          0.05000793	          0.05000021	          0.05000022	          0.05000030	          0.22827629	          0.09155359	          0.13069374	          0.08757202	          0.05000514	          0.08550487	          0.19003428	          0.21494614	          0.15655184	          0.11044737	          0.05000140	          0.07150325	          0.11774200	          0.05275462	          0.09372357	          0.11646881	          0.05000093	          0.05005554	          0.38511511	          0.15536804	          0.07352305	          0.05000054	          0.05978978	          0.05978974	          0.05978968	          0.07149649	          0.07149693	          0.06118708	          0.05979066	          0.05000514	          0.05256036	          0.41958494	          0.25025065	          0.19870670	          0.08923274	          0.44309760	          0.09608053	          0.05000001	          0.11677617	          0.10601467	
          1.18653486	         -2.93017640	         -2.95530613	          6.92781613	          1.48670309	          0.91603070	         -0.00250370	        -16.88541640	         -2.25487940	          6.72266145	         28.07876581	          3.95630129	         -2.97971668	        -11.41570651	         -9.95863273	         -2.41197585	          7.63478952	          5.18921050	         -7.49943138	          1.32811046	         -3.54287407	         18.20925363	         -1.14887678	         -1.62542038	          0.93033950	         -2.84873623	          7.12765000	        -13.45747705	         18.96673100	         -8.77734402	        -13.54174028	          9.20950656	         40.27506624	         13.29449340	         86.51662706	         86.51662706	          0.25082158	          0.05980365	          0.05000022	          0.34676513	          0.11582903	          0.07149667	          0.05000254	          0.05000044	          0.05000035	          0.05000113	          0.07834589	          0.07128625	          0.05000071	          0.05000089	          0.05000197	          0.05000140	          0.20105891	          0.05144380	          0.05000160	          0.05000459	          0.05000229	          0.05000127	          0.35475515	          0.61414841	          0.05000032	          0.05000148	          0.05000047	          0.26923993	          0.13511782	          0.17072837	          0.16353877	          0.18597913	          0.25049389	          0.22016020	          0.19947992	          0.36493533	          0.44433913	          0.05000011	          0.05000050	          0.14312733	          0.05000030	          0.05000012	          0.05000049	          0.05000009	          0.05071146	          0.05268892	          0.20407503	          0.20005228	          0.24539234	          0.20905937	          0.13234970	          0.17599229	          0.19089880	          0.08101532	          0.10929431	          0.10223978	          0.05978726	          0.07150461	          0.15891856	          0.17975159	          0.13091927	          0.13392568	          0.05000088	          0.05979970	          0.12082984	          0.10207650	          0.12445573	          0.10606130	          0.05366614	          0.05000135	          0.32205720	          0.12992865	          0.17845168	          0.05000010	          0.05000015	          0.05000015	          0.05000014	          0.05978982	          0.05979022	          0.05116843	          0.05000070	          0.05000086	          0.05000073	          0.52488306	          0.35647809	          0.20943132	          0.34566972	          0.52289604	          0.19484168	          0.05429811	          0.14619178	          0.08865603	
          1.19828273	         -2.93006983	         -3.02394312	          7.24172691	          1.50503261	          0.91508893	         -0.00233356	        -17.11862825	         -2.61845892	          6.50986429	         27.38663718	          4.15734955	         -2.70182491	        -12.62871079	        -10.69655010	         -3.01826608	          7.01510411	          6.08627463	         -7.86652869	         -0.48310484	         -3.52959629	         21.26658822	         -0.98310581	         -1.38059795	          1.10197633	         -2.91544010	          6.64383060	        -13.46745733	         18.98003273	         -9.84263152	        -13.51853985	          9.23376650	         41.69351990	         13.06208711	         86.51662706	         86.51662706	          0.31350172	          0.05001162	          0.05000022	          0.32589437	          0.09686353	          0.05979011	          0.05000387	          0.05000051	          0.05000035	          0.05000099	          0.06551837	          0.10864649	          0.05769356	          0.05000328	          0.05000483	          0.05000175	          0.16813814	          0.07149818	          0.05000265	          0.05000463	          0.05000255	          0.05000170	          0.29666834	          0.60461301	          0.05000035	          0.05000129	          0.05000030	          0.22515511	          0.20037636	          0.19877192	          0.15957832	          0.15552724	          0.20947848	          0.18411156	          0.16681747	          0.36663798	          0.50175093	          0.09106936	          0.13691235	          0.11969258	          0.05876489	          0.05000126	          0.05000383	          0.06238736	          0.05000003	          0.05000006	          0.29524878	          0.30776122	          0.34420777	          0.17483143	          0.19402580	          0.21594302	          0.15964145	          0.06775532	          0.09139921	          0.08549931	          0.05000151	          0.05979667	          0.13289764	          0.15031990	          0.10948701	          0.16697456	          0.05000083	          0.05001028	          0.10104594	          0.21398863	          0.18618778	          0.16640281	          0.05000021	          0.05000022	          0.26932432	          0.10865462	          0.14923348	          0.05000022	          0.08182213	          0.08725424	          0.05210499	          0.05000009	          0.05000038	          0.05000003	          0.05000023	          0.05000092	          0.05000092	          0.59887642	          0.36387756	          0.21031760	          0.43563634	          0.54823364	          0.25516087	          0.07575361	          0.12225494	          0.07413966	
          1.21003060	         -2.93012902	         -3.08554332	          7.50993504	          1.52329238	          0.91433575	         -0.00213078	        -17.27295728	         -2.97287796	          6.30901002	         26.77200490	          4.37229018	         -2.43230419	        -13.89977200	        -11.53622820	         -3.81345246	          6.33052623	          6.97264752	         -8.23210780	         -2.36497346	         -3.56103246	         24.35516924	         -0.83334116	         -1.15401657	          1.28257652	         -2.97371878	          6.15046195	        -13.47824626	         18.98928372	        -10.85151084	        -13.49532721	          9.24531200	         42.98112404	         12.88040063	         86.51662706	         86.51662706	          0.31474470	          0.05000019	          0.05000010	          0.27817619	          0.08100339	          0.05000058	          0.05000231	          0.05000026	          0.05000023	          0.05000019	          0.05479097	          0.09089854	          0.16538463	          0.05001370	          0.05001698	          0.10490316	          0.14060769	          0.05979336	          0.05000057	          0.05000298	          0.05000195	          0.05000154	          0.24809246	          0.55996376	          0.05000014	          0.05000065	          0.05000019	          0.18828863	          0.16847432	          0.16629545	          0.13345446	          0.13006149	          0.17517885	          0.15396546	          0.13950311	          0.30660605	          0.41965499	          0.14777165	          0.13232426	          0.12047383	          0.28793987	          0.05000061	          0.05000043	          0.08232839	          0.05000004	          0.05000007	          0.36475024	          0.36753068	          0.39386638	          0.14621826	          0.17241924	          0.19600858	          0.13350216	          0.07786607	          0.08067985	          0.07149990	          0.05000076	          0.05000585	          0.11113748	          0.12570923	          0.17582917	          0.19344062	          0.05000077	          0.05000313	          0.08450398	          0.26348905	          0.22786534	          0.20691766	          0.05000017	          0.05000020	          0.22522591	          0.09086399	          0.12480008	          0.05000015	          0.11632736	          0.12345640	          0.09928273	          0.05000004	          0.05000009	          0.05000001	          0.05000003	          0.05000038	          0.05000034	          0.64218590	          0.34848799	          0.19275511	          0.58902387	          0.58406429	          0.22749025	          0.08826702	          0.10223718	          0.06200018	
